<?xml version="1.0" encoding="iso-8859-1"?>
<!-- Uploaded to: SVG Repo, www.svgrepo.com, Generator: SVG Repo Mixer Tools -->
<svg fill="#000000" version="1.1" id="Layer_1" xmlns="http://www.w3.org/2000/svg" xmlns:xlink="http://www.w3.org/1999/xlink" 
	 viewBox="0 0 511.999 511.999" xml:space="preserve">
<g>
	<g>
		<path d="M474.485,23.06H37.515C16.829,23.06,0,39.889,0,60.575V381.44c0,20.686,16.829,37.515,37.515,37.515h134.503
			l-5.733,39.567h-28.913v30.417h24.506h188.242h24.506v-30.417h-28.913l-5.733-39.567h134.503
			c20.686,0,37.515-16.829,37.515-37.515V60.575C512,39.889,495.171,23.06,474.485,23.06z M197.02,458.521l5.732-39.567h106.494
			l5.733,39.567H197.02z M481.583,381.44c0,3.914-3.185,7.097-7.097,7.097h-138.91h-159.15H37.515c-3.913,0-7.097-3.184-7.097-7.097
			v-44.7h451.166V381.44z M481.583,306.323H30.417V60.575c0-3.914,3.185-7.097,7.097-7.097h436.971c3.913,0,7.097,3.184,7.097,7.097
			V306.323z"/>
	</g>
</g>
<g>
	<g>
		<rect x="235.054" y="347.436" width="41.895" height="30.417"/>
	</g>
</g>
<g>
	<g>
		<path d="M271.208,73.756h-30.417H74.848v212.289h165.943h30.417v0.001h165.943V73.756H271.208z M240.791,255.627H105.265V104.173
			h135.526V255.627z M406.734,255.627H271.208V104.173h135.526V255.627z"/>
	</g>
</g>
<g>
	<g>
		<rect x="127.661" y="117.948" width="90.745" height="30.417"/>
	</g>
</g>
<g>
	<g>
		<rect x="127.661" y="164.689" width="90.745" height="30.417"/>
	</g>
</g>
<g>
	<g>
		<rect x="127.661" y="211.44" width="90.745" height="30.417"/>
	</g>
</g>
<g>
	<g>
		<rect x="293.597" y="117.948" width="90.745" height="30.417"/>
	</g>
</g>
<g>
	<g>
		<rect x="293.597" y="164.689" width="90.745" height="30.417"/>
	</g>
</g>
<g>
	<g>
		<rect x="293.597" y="211.44" width="90.745" height="30.417"/>
	</g>
</g>
</svg>