<?xml version="1.0" encoding="iso-8859-1"?>
<!-- Uploaded to: SVG Repo, www.svgrepo.com, Generator: SVG Repo Mixer Tools -->
<svg version="1.1" id="Layer_1" xmlns="http://www.w3.org/2000/svg" xmlns:xlink="http://www.w3.org/1999/xlink" 
	 viewBox="0 0 510.496 510.496" xml:space="preserve">
<rect x="79.248" y="72.04" width="352" height="240.16"/>
<path d="M439.312,320.216h-368V64.04h368V320.216z M87.312,304.216h336V80.04h-336C87.312,80.04,87.312,304.216,87.312,304.216z"/>
<g style="opacity:0.35;">
	<polygon style="fill:#FFFFFF;" points="71.184,63.816 207.184,63.816 71.184,146.808 	"/>
</g>
<path d="M510.496,446.68H0l79.216-150.464H431.28L510.496,446.68z M52.992,414.68h404.496l-45.536-86.464H98.528L52.992,414.68z"/>
<rect x="108.416" y="363.448" width="297.328" height="16"/>
<g>
	<path style="fill:#F33052;" d="M220.576,243.704l-91.568-39.808v-22.048l91.568-39.632v25.968L156.688,192.6l63.888,25.328V243.704
		z"/>
	<path style="fill:#F33052;" d="M229.04,261.192l33.072-138.128h19.232l-33.44,138.128H229.04z"/>
	<path style="fill:#F33052;" d="M289.824,243.8v-25.792l63.968-25.152l-63.968-24.864v-25.616l91.664,39.632v21.872L289.824,243.8z"
		/>
</g>
</svg>